#!OML:ASF E:\Style4\Style4.ASF
:FULLY-SPECIFIED
:DEGREES
2768
root -0.12714 17.865 -1.96273 5.74889 -1.36721 1.90284
lowerback 10.8652 2.63328 -1.03618
upperback 7.15873 3.3845 0.456914
thorax 1.29017 1.64869 0.730416
lowerneck -1.08378 -5.05065 -5.21185
upperneck -2.55254 -6.65401 3.9909
head -0.289303 -3.31004 2.10955
rclavicle 2.22639e-014 -1.35174e-014
rhumerus 45.3369 23.3957 9.79402
rradius 106.335
rwrist -105.038
rhand -24.7951 21.1567
rfingers 7.12502
rthumb 1.70947 -8.8162
lclavicle 2.22639e-014 -1.35174e-014
lhumerus 55.1565 -20.0732 -10.1789
lradius 106.253
lwrist 92.4708
lhand -5.88224 27.6804
lfingers 7.12502
lthumb 19.9456 56.6768
rfemur -23.6968 0.784459 17.0696
rtibia 32.0542
rfoot -14.4589 -13.2673
rtoes -10.9154
lfemur -22.6246 0.565376 -19.6114
ltibia 29.6792
lfoot -14.0642 11.0932
ltoes -13.1912
2769
root -0.127534 17.8761 -1.94626 5.85848 -1.3425 1.90553
lowerback 11.4395 2.59856 -1.0639
upperback 6.60726 3.32651 0.427889
thorax 0.403502 1.62543 0.678167
lowerneck -1.30733 -5.0076 -5.18553
upperneck -1.95628 -6.59501 3.86758
head -0.0730535 -3.28048 2.04774
rclavicle -5.48646e-014 1.47101e-014
rhumerus 45.5196 23.1814 9.53481
rradius 105.699
rwrist -104.927
rhand -24.5758 21.0402
rfingers 7.12502
rthumb 1.92125 -8.93086
lclavicle -5.48646e-014 1.47101e-014
lhumerus 55.089 -19.9253 -9.90085
lradius 105.626
lwrist 92.3661
lhand -5.75596 27.6602
lfingers 7.12502
lthumb 20.0669 56.6439
rfemur -23.5923 0.813261 17.0629
rtibia 31.7565
rfoot -14.3125 -13.2795
rtoes -10.6905
lfemur -22.5329 0.506791 -19.6098
ltibia 29.3878
lfoot -13.9855 11.067
ltoes -12.6225
2770
root -0.129261 17.8872 -1.93053 5.94385 -1.31564 1.8284
lowerback 11.4515 2.59839 -0.872499
upperback 6.46325 3.34385 0.401464
thorax 0.258059 1.64055 0.537291
lowerneck -1.60505 -5.04648 -5.24099
upperneck -1.71339 -6.63523 3.85127
head 0.0565614 -3.29874 2.03852
rclavicle 1.31198e-014 -3.57812e-015
rhumerus 45.4746 22.5129 9.25818
rradius 104.966
rwrist -104.746
rhand -24.3339 21.2037
rfingers 7.12502
rthumb 2.15493 -8.76518
lclavicle 1.31198e-014 -3.57812e-015
lhumerus 55.1636 -19.2521 -9.5293
lradius 104.882
lwrist 92.2442
lhand -5.38455 27.8059
lfingers 7.12502
lthumb 20.4239 56.7518
rfemur -23.4534 0.856637 17.1528
rtibia 31.4561
rfoot -14.2053 -13.3398
rtoes -10.7048
lfemur -22.4188 0.512213 -19.5312
ltibia 29.1313
lfoot -13.8612 11.2093
ltoes -13.5919
2771
root -0.132552 17.8971 -1.91589 6.01615 -1.28459 1.75573
lowerback 11.5021 2.58244 -0.849339
upperback 6.30082 3.32532 0.485765
thorax 0.0574665 1.63161 0.606213
lowerneck -1.9385 -5.04949 -5.53084
upperneck -1.3036 -6.62292 3.89982
head 0.253174 -3.29017 2.08929
rclavicle -2.98177e-014 -1.59028e-015
rhumerus 45.6174 21.9211 9.19842
rradius 104.304
rwrist -104.403
rhand -24.17 21.5857
rfingers 7.12502
rthumb 2.31322 -8.38147
lclavicle -2.98177e-014 -1.59028e-015
lhumerus 55.1196 -18.6937 -8.99471
lradius 104.095
lwrist 92.1352
lhand -5.21661 27.7649
lfingers 7.12502
lthumb 20.5853 56.6934
rfemur -23.3151 0.918689 17.2371
rtibia 31.1779
rfoot -14.1572 -13.3743
rtoes -10.5597
lfemur -22.3123 0.512213 -19.4509
ltibia 28.8981
lfoot -13.784 11.294
ltoes -14.2339
